<svg version="1.2" xmlns="http://www.w3.org/2000/svg" viewBox="0 0 844 370" width="844" height="370">
	<title>Sec 1 final logo 2-ai</title>
	<style>
		.s0 { fill: #cbcbcb } 
		.s1 { fill: #ff5b1e } 
		.s2 { fill: #ffffff } 
	</style>
	<g id="Layer 1">
		<g id="&lt;Group&gt;">
			<g id="&lt;Group&gt;">
				<path id="&lt;Path&gt;" class="s0" d="m792.1 100.9v-79.2l51-20.7v59.2z"/>
				<g id="&lt;Group&gt;">
					<path id="&lt;Path&gt;" class="s1" d="m243.1 34.6v48h-169.9q-10.3 0-17.3 7-7 7.1-7 17.3 0 10.2 7 17.5 7 7.3 17.3 7.3h97.1q15.1 0 28.3 5.7 13.2 5.6 23.2 15.4 10 9.7 15.6 22.9 5.7 13.2 5.7 28.3 0 15.1-5.7 28.3-5.6 13.2-15.6 23.2-10 10-23.2 15.7-13.2 5.6-28.3 5.6h-169.4v-48h169.4q10.7 0 17.8-7 7-7 7-17.8 0-10.2-7-17.3-7.1-7-17.8-7h-97.1q-15.1 0-28.4-5.6-13.2-5.7-22.9-15.7-9.7-10-15.4-23.2-5.6-13.2-5.6-28.3 0-15.1 5.6-28.3 5.7-13.2 15.4-23 9.7-9.7 22.9-15.3 13.3-5.7 28.4-5.7z"/>
					<path id="&lt;Compound Path&gt;" fill-rule="evenodd" class="s2" d="m448.1 191.6l34 34-16.7 16.7q-17.3 17.3-39.4 26.4-22.1 9.2-46.4 9.2-24.3 0-46.4-9.2-22.1-9.1-39.4-26.4-17.8-17.8-26.4-40.2-8.7-22.4-8.7-45.6 0-23.2 8.7-45.3 8.6-22.1 26.4-39.9 17.8-17.8 40.2-26.7 22.4-8.9 45.6-8.9 23.2 0 45.6 8.9 22.3 8.9 40.2 26.7l16.7 16.7-134.4 134.3q20.5 10.3 43.5 6.8 22.9-3.5 40.2-20.8zm-120.3-86.8q-21.6 21.5-21.6 51.8 0 16.7 7.5 31.8 6.5-6.5 19.7-19.7 13.2-13.2 28.1-28.1 14.8-14.8 28.6-28.3 13.7-13.5 21.3-21-20.5-10.3-43.4-7-23 3.2-40.2 20.5z"/>
					<path id="&lt;Path&gt;" class="s2" d="m533.9 70.2q17.8-17.8 40.2-26.7 22.3-8.9 45.5-8.9 23.2 0 45.6 8.9 22.4 8.9 40.2 26.7l16.7 16.7-33.4 34-17.3-16.7q-10.8-10.8-24.2-16.2-13.5-5.4-27.6-5.4-14 0-27.5 5.4-13.5 5.4-24.3 16.2-10.7 10.3-16.1 23.7-5.4 13.5-5.4 27.5 0 14.1 5.4 27.6 5.4 13.5 16.1 24.2 21.6 21.6 51.8 21.6 14.6 0 28.1-5.4 13.5-5.4 23.7-16.2l17.3-16.7 33.4 34-16.7 16.7q-17.8 17.8-40.2 26.7-22.4 8.9-45.6 8.9-23.2 0-45.5-8.9-22.4-8.9-40.2-26.7-17.8-17.8-26.5-39.9-8.6-22.1-8.6-45.6 0-23.4 8.6-45.6 8.7-22.1 26.5-39.9z"/>
					<path id="&lt;Path&gt;" class="s2" d="m795.3 1v2.2c0 20.7-16.9 37.5-37.6 37.5h-18.1v47.9h18.1c12.2 0 23.9-2.6 34.4-7.2 30-13.2 51-43.3 51-78.2v-2.2z"/>
					<path id="&lt;Path&gt;" class="s2" d="m792.1 95.3v182.1h51v-249.6c-3.9 30.4-23.8 55.8-51 67.5z"/>
					<path id="&lt;Path&gt;" class="s2" d="m639.2 177.1q-8.9 9-21.4 9-12.4 0-21.4-9-8.9-8.9-8.9-21.4 0-12.4 8.9-21.4 9-8.9 21.4-8.9 12.5 0 21.4 8.9l21.7 21.7z"/>
				</g>
			</g>
			<g id="&lt;Group&gt;">
				<path id="&lt;Compound Path&gt;" class="s2" d="m24.9 356.8q-6.9 0-12.4-3-5.4-3.1-8.5-8.7-3.1-5.5-3.1-12.4 0-6.9 3.1-12.5 3.1-5.5 8.5-8.6 5.5-3.1 12.4-3.1 8.1 0 14.2 4.5 6 4.5 8 12.1h-6q-1.8-5.1-6.1-7.9-4.3-2.9-10.1-2.9-7.9 0-12.9 5.1-5.1 5.2-5.1 13.3 0 8.1 5.1 13.2 5 5.2 12.9 5.2 5.9 0 10.3-3.1 4.3-3 6.1-8.4h6q-2 7.9-8 12.6-6.1 4.6-14.4 4.6z"/>
				<path id="&lt;Compound Path&gt;" class="s2" d="m81.8 320h6l-17.2 37.6q-2.9 6.5-6 9-3 2.4-8.1 2.4h-3.4v-5.1h2.9q3.6 0 5.4-1.5 1.8-1.5 4-6l1.3-2.7-16.1-33.7h6.2l12.9 27.3z"/>
				<path id="&lt;Compound Path&gt;" fill-rule="evenodd" class="s2" d="m113.7 319.2q5.3 0 9.6 2.4 4.3 2.5 6.6 6.8 2.4 4.3 2.4 9.6 0 8.2-5.3 13.5-5.2 5.4-13.3 5.4-4.2 0-7.8-1.5-3.5-1.6-6.1-4.4l-0.8 5.1h-4.4v-49h5.7v17.4q2.5-2.5 6-3.9 3.4-1.4 7.4-1.4zm-10 28.4q3.8 3.8 9.5 3.8 5.8 0 9.5-3.8 3.8-3.8 3.8-9.6 0-5.7-3.8-9.5-3.7-3.8-9.5-3.8-5.7 0-9.5 3.8-3.8 3.8-3.8 9.5 0 5.7 3.8 9.6z"/>
				<path id="&lt;Compound Path&gt;" fill-rule="evenodd" class="s2" d="m174.7 338.2q0 1-0.1 2h-30.8q0.6 5.1 4.1 8.1 3.5 3.1 8.6 3.1 3.7 0 6.6-1.7 2.9-1.6 4.6-4.6h6.1q-2.4 5.6-6.9 8.7-4.5 3.1-10.4 3.1-5.2 0-9.4-2.4-4.2-2.5-6.6-6.8-2.4-4.3-2.4-9.7 0-5.2 2.4-9.6 2.4-4.3 6.6-6.8 4.2-2.4 9.4-2.4 5.4 0 9.5 2.5 4.2 2.6 6.5 6.9 2.2 4.3 2.2 9.6zm-18.2-13.6q-4.9 0-8.3 2.8-3.4 2.8-4.3 7.6h25.1q-0.9-4.8-4.3-7.6-3.4-2.8-8.2-2.8z"/>
				<path id="&lt;Compound Path&gt;" class="s2" d="m199.8 319.8h3.2v5.4h-3.7q-4.9 0-7.7 3-2.7 3-2.7 8.3v19.6h-5.7v-36.1h4.1l0.9 5.5q3.9-5.7 11.6-5.7z"/>
				<path id="&lt;Compound Path&gt;" class="s2" d="m220.2 356.9q-6.4 0-10.3-3.2-3.9-3.2-4.1-8.7h5.6q0.2 3.2 2.7 4.9 2.4 1.7 6.3 1.7 3.8 0 6.1-1.5 2.4-1.5 2.4-4.1 0-1-0.3-1.8-0.3-0.8-1.1-1.4-0.7-0.6-1.4-1-0.7-0.4-2-0.7-1.2-0.3-2.1-0.5-0.9-0.2-2.5-0.5-1.2-0.2-1.8-0.3-0.7-0.1-1.9-0.4-1.1-0.2-1.8-0.5-0.7-0.2-1.7-0.6-1-0.3-1.6-0.7-0.6-0.5-1.4-1-0.8-0.6-1.2-1.3-0.4-0.7-0.9-1.5-0.4-0.9-0.6-1.9-0.1-1-0.1-2.3 0-4.6 3.7-7.5 3.8-2.9 9.9-2.9 6.1 0 9.8 3 3.7 3 3.8 8.2h-5.4q-0.1-3-2.3-4.6-2.2-1.6-6-1.6-3.7 0-5.9 1.5-2.1 1.4-2.1 3.7 0 1 0.3 1.7 0.3 0.7 1 1.3 0.6 0.5 1.3 0.8 0.7 0.4 1.9 0.7 1.2 0.3 2.1 0.5 0.8 0.1 2.4 0.3 5.3 0.9 7.7 1.9 5.3 2.3 5.8 7.9 0 0.6 0 1.3 0 5-3.9 8.1-3.9 3-10.4 3z"/>
				<path id="&lt;Compound Path&gt;" fill-rule="evenodd" class="s2" d="m276.9 338.2q0 1-0.1 2h-30.8q0.6 5.1 4.1 8.1 3.5 3.1 8.6 3.1 3.7 0 6.6-1.7 3-1.6 4.7-4.6h6q-2.4 5.6-6.9 8.7-4.5 3.1-10.4 3.1-5.2 0-9.4-2.4-4.2-2.5-6.6-6.8-2.4-4.3-2.4-9.7 0-5.2 2.4-9.6 2.4-4.3 6.6-6.8 4.2-2.4 9.4-2.4 5.4 0 9.6 2.5 4.1 2.6 6.4 6.9 2.2 4.3 2.2 9.6zm-18.2-13.6q-4.9 0-8.3 2.8-3.4 2.8-4.3 7.6h25.1q-0.9-4.8-4.3-7.6-3.4-2.8-8.2-2.8z"/>
				<path id="&lt;Compound Path&gt;" class="s2" d="m301.4 356.9q-5.3 0-9.6-2.4-4.3-2.5-6.8-6.8-2.4-4.4-2.4-9.7 0-5.3 2.4-9.6 2.5-4.3 6.8-6.8 4.3-2.4 9.6-2.4 6.4 0 11.1 3.5 4.8 3.5 6.4 9.5h-5.6q-1.6-3.5-4.8-5.5-3.1-2-7.1-2-5.6 0-9.3 3.8-3.7 3.9-3.7 9.5 0 5.7 3.7 9.6 3.7 3.8 9.3 3.8 4 0 7.1-2 3.1-2 4.7-5.7h5.8q-1.7 6-6.5 9.6-4.8 3.6-11.1 3.6z"/>
				<path id="&lt;Compound Path&gt;" class="s2" d="m342.3 356.9q-7.3 0-11.6-4.4-4.4-4.4-4.4-11.6v-20.9h5.7v19.9q0 5.4 2.8 8.4 2.8 3.1 7.5 3.1 4.8 0 7.6-3.1 2.8-3.1 2.8-8.4v-19.9h5.7v20.9q0 7.2-4.4 11.6-4.3 4.4-11.7 4.4z"/>
				<path id="&lt;Compound Path&gt;" class="s2" d="m385.8 319.8h3.2v5.4h-3.7q-4.9 0-7.7 3-2.7 3-2.7 8.3v19.6h-5.7v-36.1h4.1l0.9 5.5q3.9-5.7 11.6-5.7z"/>
				<path id="&lt;Compound Path&gt;" class="s2" d="m394.8 313.7v-6.5h6.2v6.5zm0.2 42.4v-36.1h5.7v36.1z"/>
				<path id="&lt;Compound Path&gt;" class="s2" d="m427.2 350.9h3.9v5.2h-4.7q-5.8 0-9.2-3.4-3.3-3.3-3.3-9.2v-18.4h-6.4v-1l11.2-11.8h0.9v7.7h11.3v5.1h-11.3v18.2q0 3.7 1.9 5.6 2 2 5.7 2z"/>
				<path id="&lt;Compound Path&gt;" class="s2" d="m465.1 320h6.1l-17.2 37.6q-3 6.5-6 9-3.1 2.4-8.2 2.4h-3.4v-5.1h2.9q3.6 0 5.4-1.5 1.9-1.5 4.1-6l1.3-2.7-16.1-33.7h6.2l12.8 27.3z"/>
				<path id="&lt;Compound Path&gt;" fill-rule="evenodd" class="s2" d="m525.3 356.1l-4.7-11.2h-22.5l-4.6 11.2h-6.2l19.1-46.9h5.5l19.7 46.9zm-15.9-38.7l-9 22.1h18.1z"/>
				<path id="&lt;Compound Path&gt;" class="s2" d="m539.2 356.1v-46.9h5.8v46.9z"/>
				<path id="&lt;Compound Path&gt;" class="s2" d="m601.7 314.8h-20.5v15.5h18.8v5.5h-18.8v20.3h-5.8v-46.9h26.3z"/>
				<path id="&lt;Compound Path&gt;" fill-rule="evenodd" class="s2" d="m625.6 356.9q-8.2 0-13.6-5.4-5.5-5.3-5.5-13.5 0-5.3 2.5-9.6 2.5-4.3 6.8-6.8 4.4-2.4 9.8-2.4 5.4 0 9.8 2.4 4.4 2.5 6.9 6.8 2.5 4.3 2.5 9.6 0 5.4-2.5 9.7-2.5 4.3-6.9 6.8-4.4 2.4-9.8 2.4zm-9.5-9.3q3.7 3.8 9.5 3.8 5.9 0 9.6-3.8 3.8-3.7 3.8-9.6 0-5.8-3.8-9.5-3.7-3.8-9.6-3.8-5.8 0-9.5 3.8-3.8 3.7-3.8 9.5 0 5.9 3.8 9.6z"/>
				<path id="&lt;Compound Path&gt;" class="s2" d="m670 319.8h3.2v5.4h-3.7q-4.9 0-7.6 3-2.7 3-2.7 8.3v19.6h-5.8v-36.1h4.1l0.9 5.5q3.9-5.7 11.6-5.7z"/>
				<path id="&lt;Compound Path&gt;" class="s2" d="m694.3 350.9h3.9v5.2h-4.7q-5.8 0-9.2-3.4-3.3-3.3-3.3-9.2v-18.4h-6.4v-1l11.2-11.8h0.9v7.7h11.3v5.1h-11.3v18.2q0 3.7 1.9 5.6 2 2 5.7 2z"/>
				<path id="&lt;Compound Path&gt;" class="s2" d="m705.5 313.7v-6.5h6.2v6.5zm0.3 42.4v-36.1h5.7v36.1z"/>
				<path id="&lt;Compound Path&gt;" class="s2" d="m742.3 320.2v4.8h-11.1v31.1h-5.7v-31.1h-7.1v-4.8h7.1v-2.9q0-5.9 2.8-8.7 2.8-2.9 8.8-2.9h5.1v4.7h-4.1q-3.8 0-5.5 1.6-1.6 1.6-1.6 5.4v2.8z"/>
				<path id="&lt;Compound Path&gt;" class="s2" d="m748.6 313.7v-6.5h6.2v6.5zm0.2 42.4v-36.1h5.7v36.1z"/>
				<path id="&lt;Compound Path&gt;" fill-rule="evenodd" class="s2" d="m799.7 338.2q0 1-0.1 2h-30.8q0.7 5.1 4.1 8.1 3.5 3.1 8.6 3.1 3.8 0 6.7-1.7 2.9-1.6 4.6-4.6h6q-2.3 5.6-6.9 8.7-4.5 3.1-10.4 3.1-5.1 0-9.4-2.4-4.2-2.5-6.6-6.8-2.4-4.3-2.4-9.7 0-5.2 2.4-9.6 2.4-4.3 6.6-6.8 4.3-2.4 9.4-2.4 5.4 0 9.6 2.5 4.2 2.6 6.4 6.9 2.2 4.3 2.2 9.6zm-18.2-13.6q-4.9 0-8.3 2.8-3.4 2.8-4.3 7.6h25.2q-1-4.8-4.3-7.6-3.4-2.8-8.3-2.8z"/>
				<path id="&lt;Compound Path&gt;" fill-rule="evenodd" class="s2" d="m837.4 307.1h5.7v49h-4.4l-0.7-5.1q-2.6 2.8-6.2 4.4-3.6 1.5-7.8 1.5-8.1 0-13.3-5.4-5.3-5.3-5.3-13.5 0-5.3 2.4-9.6 2.3-4.3 6.6-6.8 4.3-2.4 9.6-2.4 4 0 7.5 1.4 3.4 1.4 5.9 3.9zm-22.4 40.6q3.8 3.8 9.5 3.8 5.7 0 9.5-3.8 3.8-3.9 3.8-9.6 0-5.7-3.8-9.5-3.8-3.8-9.5-3.8-5.7 0-9.5 3.8-3.8 3.8-3.8 9.5 0 5.8 3.8 9.6z"/>
			</g>
		</g>
	</g>
</svg>